<?xml version="1.0" encoding="utf-8"?>
<!-- Generator: Adobe Illustrator 26.0.3, SVG Export Plug-In . SVG Version: 6.00 Build 0)  -->
<svg version="1.1" id="Capa_1" xmlns="http://www.w3.org/2000/svg" xmlns:xlink="http://www.w3.org/1999/xlink" x="0px" y="0px"
	 viewBox="0 0 24 24" style="enable-background:new 0 0 24 24;" xml:space="preserve">
<style type="text/css">
	.st0{fill:#FFFFFF;}
</style>
<path class="st0" d="M21.8,6c-0.7,0.3-1.5,0.5-2.3,0.6c0.8-0.5,1.5-1.3,1.8-2.2c-0.8,0.5-1.6,0.8-2.5,1c-0.4-0.4-0.8-0.7-1.3-0.9
	c-0.5-0.2-1-0.3-1.6-0.3c-2.2,0-4,1.8-4,4c0,0.3,0,0.6,0.1,0.9C8.5,8.8,5.6,7.2,3.6,4.8c-0.4,0.6-0.5,1.3-0.5,2
	c0,1.4,0.7,2.6,1.8,3.3C4.2,10.1,3.6,10,3,9.6v0c0,1.9,1.4,3.6,3.2,3.9c-0.3,0.1-0.7,0.1-1.1,0.1c-0.3,0-0.5,0-0.8-0.1
	c0.5,1.6,2,2.7,3.7,2.8c-1.4,1.1-3.1,1.7-5,1.7c-0.3,0-0.6,0-1,0c1.8,1.1,3.9,1.8,6.1,1.8c7.3,0,11.4-6.1,11.4-11.4
	c0-0.2,0-0.3,0-0.5C20.5,7.5,21.2,6.8,21.8,6z"/>
</svg>
