<?xml version="1.0" encoding="utf-8"?>
<!-- Generator: Adobe Illustrator 26.0.3, SVG Export Plug-In . SVG Version: 6.00 Build 0)  -->
<svg version="1.1" id="Capa_1" xmlns="http://www.w3.org/2000/svg" xmlns:xlink="http://www.w3.org/1999/xlink" x="0px" y="0px"
	 viewBox="0 0 24 24" style="enable-background:new 0 0 24 24;" xml:space="preserve">
<style type="text/css">
	.st0{fill:#FFFFFF;}
</style>
<path class="st0" d="M12,8.9c-1.7,0-3.1,1.4-3.1,3.1s1.4,3.1,3.1,3.1s3.1-1.4,3.1-3.1S13.7,8.9,12,8.9z M21.4,12
	c0-1.3,0-2.6-0.1-3.9c-0.1-1.5-0.4-2.8-1.5-3.9c-1.1-1.1-2.4-1.4-3.9-1.5c-1.3-0.1-2.6-0.1-3.9-0.1c-1.3,0-2.6,0-3.9,0.1
	C6.6,2.8,5.3,3.1,4.2,4.2C3.1,5.3,2.8,6.6,2.7,8.1C2.6,9.4,2.6,10.7,2.6,12s0,2.6,0.1,3.9c0.1,1.5,0.4,2.8,1.5,3.9
	c1.1,1.1,2.4,1.4,3.9,1.5c1.3,0.1,2.6,0.1,3.9,0.1c1.3,0,2.6,0,3.9-0.1c1.5-0.1,2.8-0.4,3.9-1.5c1.1-1.1,1.4-2.4,1.5-3.9
	C21.4,14.6,21.4,13.3,21.4,12z M12,16.8c-2.7,0-4.8-2.1-4.8-4.8c0-2.7,2.1-4.8,4.8-4.8c2.7,0,4.8,2.1,4.8,4.8
	C16.8,14.7,14.7,16.8,12,16.8z M17,8.1c-0.6,0-1.1-0.5-1.1-1.1c0-0.6,0.5-1.1,1.1-1.1s1.1,0.5,1.1,1.1c0,0.1,0,0.3-0.1,0.4
	c-0.1,0.1-0.1,0.3-0.2,0.4C17.7,7.9,17.6,8,17.4,8C17.3,8.1,17.2,8.1,17,8.1z"/>
</svg>
