<?xml version="1.0" encoding="utf-8"?>
<!-- Generator: Adobe Illustrator 26.0.3, SVG Export Plug-In . SVG Version: 6.00 Build 0)  -->
<svg version="1.1" id="Capa_1" xmlns="http://www.w3.org/2000/svg" xmlns:xlink="http://www.w3.org/1999/xlink" x="0px" y="0px"
	 viewBox="0 0 24 24" style="enable-background:new 0 0 24 24;" xml:space="preserve">
<style type="text/css">
	.st0{clip-path:url(#SVGID_00000137112819289013262420000011216141618365274268_);}
	.st1{fill:#FFFFFF;}
</style>
<g>
	<defs>
		<rect id="SVGID_1_" width="24" height="24"/>
	</defs>
	<clipPath id="SVGID_00000052785406548889382940000008970964472277467533_">
		<use xlink:href="#SVGID_1_"  style="overflow:visible;"/>
	</clipPath>
	<g style="clip-path:url(#SVGID_00000052785406548889382940000008970964472277467533_);">
		<path class="st1" d="M6.2,22.5H1.8v-14h4.4V22.5z M4,6.6C2.6,6.6,1.5,5.4,1.5,4c0-0.7,0.3-1.3,0.7-1.8C2.7,1.8,3.4,1.5,4,1.5
			c0.7,0,1.3,0.3,1.8,0.7C6.3,2.7,6.5,3.4,6.5,4C6.5,5.4,5.4,6.6,4,6.6z M22.5,22.5h-4.3v-6.8c0-1.6,0-3.7-2.3-3.7
			c-2.3,0-2.6,1.8-2.6,3.6v6.9H8.9v-14h4.2v1.9h0.1c0.6-1.1,2-2.3,4.1-2.3c4.4,0,5.2,2.9,5.2,6.7L22.5,22.5L22.5,22.5z"/>
	</g>
</g>
</svg>
