<?xml version="1.0" encoding="utf-8"?>
<!-- Generator: Adobe Illustrator 26.0.3, SVG Export Plug-In . SVG Version: 6.00 Build 0)  -->
<svg version="1.1" id="Capa_1" xmlns="http://www.w3.org/2000/svg" xmlns:xlink="http://www.w3.org/1999/xlink" x="0px" y="0px"
	 viewBox="0 0 80 80" style="enable-background:new 0 0 80 80;" xml:space="preserve">
<style type="text/css">
	.st0{clip-path:url(#SVGID_00000127011666828570603930000015779024895309093508_);}
	.st1{fill:#F26440;}
</style>
<g>
	<defs>
		<rect id="SVGID_1_" width="80" height="80"/>
	</defs>
	<clipPath id="SVGID_00000079447410500248048420000011848826530801671050_">
		<use xlink:href="#SVGID_1_"  style="overflow:visible;"/>
	</clipPath>
	<g style="clip-path:url(#SVGID_00000079447410500248048420000011848826530801671050_);">
		<path class="st1" d="M40,60.9c-4.5-5.6-7.1-10.6-8-14.8c-0.9-3.4-0.5-6.2,1-8.2c1.6-2.4,3.9-3.5,7.1-3.5s5.5,1.1,7.1,3.5
			c1.5,2,1.9,4.8,1,8.2C47,50.4,44.4,55.3,40,60.9L40,60.9z M72,64.7c-0.6,4.2-3.4,7.6-7.3,9.3c-7.5,3.3-14.9-1.9-21.3-9
			c10.5-13.2,12.5-23.4,7.9-30c-2.6-3.8-6.4-5.7-11.3-5.7c-9.8,0-15.2,8.3-13.1,17.9c1.2,5.2,4.5,11.1,9.7,17.8
			c-3.3,3.6-6.4,6.2-9.1,7.8c-2.1,1.1-4.2,1.8-6.1,2c-8.9,1.3-15.9-7.3-12.7-16.2c0.4-1.2,1.3-3.3,2.8-6.5l0.1-0.2
			c4.9-10.6,10.8-22.6,17.6-36l0.2-0.4l1.9-3.7c1.5-2.7,2.1-4,4.5-5.5c1.2-0.7,2.6-1,4.2-1c3.2,0,5.6,1.8,6.7,3.3
			c0.5,0.8,1.1,1.9,1.9,3.2l1.9,3.6l0.3,0.5c6.8,13.3,12.7,25.4,17.6,36l0.1,0.1l1.8,4.1l1.1,2.6C72.1,60.5,72.2,62.5,72,64.7
			L72,64.7z M76,56.7c-0.6-2-1.7-4.2-3-7v-0.1c-6.3-13.3-12.1-25.4-17.7-36.1L55,13C51,4.9,48.2,0,40,0c-8.1,0-11.6,5.7-15.1,13
			l-0.3,0.5C19,24.3,13.2,36.3,6.9,49.7v0.2l-1.9,4.1c-0.7,1.7-1.1,2.6-1.1,2.8C-0.6,69.1,8.7,80,19.9,80c0.1,0,0.4,0,0.9-0.1h1.2
			c5.8-0.7,11.8-4.4,17.9-11.1c6.1,6.6,12.1,10.3,17.9,11.1h1.2C59.6,80,60,80,60.1,80C71.3,80,80.5,69.1,76,56.7L76,56.7z"/>
	</g>
</g>
</svg>
