<?xml version="1.0" encoding="utf-8"?>
<!-- Generator: Adobe Illustrator 26.0.3, SVG Export Plug-In . SVG Version: 6.00 Build 0)  -->
<svg version="1.1" id="Capa_1" xmlns="http://www.w3.org/2000/svg" xmlns:xlink="http://www.w3.org/1999/xlink" x="0px" y="0px"
	 viewBox="0 0 40 40" style="enable-background:new 0 0 40 40;" xml:space="preserve">
<style type="text/css">
	.st0{fill:#FFFFFF;}
	.st1{fill:#F26440;}
</style>
<g>
	<path class="st0" d="M6.7,7.3h26.7c1.8,0,3.3,1.5,3.3,3.3v20c0,1.8-1.5,3.3-3.3,3.3H6.7c-1.8,0-3.3-1.5-3.3-3.3v-20
		C3.3,8.8,4.8,7.3,6.7,7.3z"/>
	<path class="st1" d="M33.3,34.9H6.7c-2.4,0-4.3-1.9-4.3-4.3v-20c0-2.4,1.9-4.3,4.3-4.3h26.7c2.4,0,4.3,1.9,4.3,4.3v20
		C37.7,33,35.7,34.9,33.3,34.9z M6.7,8.3c-1.3,0-2.3,1-2.3,2.3v20c0,1.3,1,2.3,2.3,2.3h26.7c1.3,0,2.3-1,2.3-2.3v-20
		c0-1.3-1-2.3-2.3-2.3H6.7z"/>
</g>
<path class="st0" d="M36.7,10.6L20,22.3L3.3,10.6"/>
<g>
	<path class="st1" d="M20,23.3c-0.2,0-0.4-0.1-0.6-0.2L2.8,11.4c-0.5-0.3-0.6-0.9-0.2-1.4c0.3-0.5,0.9-0.6,1.4-0.2L20,21L36.1,9.8
		c0.5-0.3,1.1-0.2,1.4,0.2c0.3,0.5,0.2,1.1-0.2,1.4L20.6,23.1C20.4,23.2,20.2,23.3,20,23.3z"/>
</g>
</svg>
