<?xml version="1.0" encoding="utf-8"?>
<!-- Generator: Adobe Illustrator 26.0.3, SVG Export Plug-In . SVG Version: 6.00 Build 0)  -->
<svg version="1.1" id="Capa_1" xmlns="http://www.w3.org/2000/svg" xmlns:xlink="http://www.w3.org/1999/xlink" x="0px" y="0px"
	 viewBox="0 0 40 40" style="enable-background:new 0 0 40 40;" xml:space="preserve">
<style type="text/css">
	.st0{fill:#FFFFFF;}
</style>
<path class="st0" d="M36.7,28.2v5c0,0.5-0.1,0.9-0.3,1.3c-0.2,0.4-0.5,0.8-0.8,1.1c-0.3,0.3-0.7,0.6-1.2,0.7
	c-0.4,0.1-0.9,0.2-1.4,0.2C27.9,36,23,34.2,18.7,31.4c-4-2.6-7.4-6-10-10C5.8,17.1,4.1,12.1,3.5,7c0-0.5,0-0.9,0.2-1.4
	c0.1-0.4,0.4-0.8,0.7-1.2c0.3-0.3,0.7-0.6,1.1-0.8c0.4-0.2,0.9-0.3,1.3-0.3h5c0.8,0,1.6,0.3,2.2,0.8c0.6,0.5,1,1.3,1.1,2.1
	c0.2,1.6,0.6,3.2,1.2,4.7c0.2,0.6,0.3,1.2,0.1,1.9c-0.1,0.6-0.4,1.2-0.9,1.6l-2.1,2.1c2.4,4.2,5.8,7.6,10,10l2.1-2.1
	c0.5-0.4,1-0.8,1.6-0.9c0.6-0.1,1.3-0.1,1.9,0.1c1.5,0.6,3.1,1,4.7,1.2c0.8,0.1,1.5,0.5,2.1,1.1C36.4,26.6,36.7,27.4,36.7,28.2z"/>
</svg>
